<svg xmlns:xlink="http://www.w3.org/1999/xlink" version="1.1" class="highcharts-root" style="font-family:&quot;Lucida Grande&quot;, &quot;Lucida Sans Unicode&quot;, Arial, Helvetica, sans-serif;font-size:12px;" xmlns="http://www.w3.org/2000/svg" width="1920" height="1080" viewBox="0 0 1920 1080"><desc>Created with Highcharts 7.1.2</desc><defs><linearGradient x1="0" y1="0" x2="1" y2="0" id="highcharts-m8xdvt4-30"><stop offset="0" stop-color="rgb(103,143,248)" stop-opacity="1"></stop><stop offset="0.5" stop-color="rgb(247,247,164)" stop-opacity="1"></stop><stop offset="1" stop-color="rgb(239,64,64)" stop-opacity="1"></stop></linearGradient><clipPath id="highcharts-m8xdvt4-31-"><rect x="0" y="0" width="1833" height="915" fill="none"></rect></clipPath></defs><rect fill="#ffffff" class="highcharts-background" x="0" y="0" width="1920" height="1080" rx="0" ry="0"></rect><rect fill="none" class="highcharts-plot-background" x="77" y="46" width="1833" height="915"></rect><g class="highcharts-pane-group" data-z-index="0"></g><g class="highcharts-grid highcharts-xaxis-grid" data-z-index="1"><path fill="none" stroke-dasharray="none" data-z-index="1" class="highcharts-grid-line" d="M 131.5 46 L 131.5 961" opacity="1"></path><path fill="none" stroke-dasharray="none" data-z-index="1" class="highcharts-grid-line" d="M 228.5 46 L 228.5 961" opacity="1"></path><path fill="none" stroke-dasharray="none" data-z-index="1" class="highcharts-grid-line" d="M 325.5 46 L 325.5 961" opacity="1"></path><path fill="none" stroke-dasharray="none" data-z-index="1" class="highcharts-grid-line" d="M 422.5 46 L 422.5 961" opacity="1"></path><path fill="none" stroke-dasharray="none" data-z-index="1" class="highcharts-grid-line" d="M 519.5 46 L 519.5 961" opacity="1"></path><path fill="none" stroke-dasharray="none" data-z-index="1" class="highcharts-grid-line" d="M 616.5 46 L 616.5 961" opacity="1"></path><path fill="none" stroke-dasharray="none" data-z-index="1" class="highcharts-grid-line" d="M 713.5 46 L 713.5 961" opacity="1"></path><path fill="none" stroke-dasharray="none" data-z-index="1" class="highcharts-grid-line" d="M 810.5 46 L 810.5 961" opacity="1"></path><path fill="none" stroke-dasharray="none" data-z-index="1" class="highcharts-grid-line" d="M 906.5 46 L 906.5 961" opacity="1"></path><path fill="none" stroke-dasharray="none" data-z-index="1" class="highcharts-grid-line" d="M 1003.5 46 L 1003.5 961" opacity="1"></path><path fill="none" stroke-dasharray="none" data-z-index="1" class="highcharts-grid-line" d="M 1100.5 46 L 1100.5 961" opacity="1"></path><path fill="none" stroke-dasharray="none" data-z-index="1" class="highcharts-grid-line" d="M 1197.5 46 L 1197.5 961" opacity="1"></path><path fill="none" stroke-dasharray="none" data-z-index="1" class="highcharts-grid-line" d="M 1294.5 46 L 1294.5 961" opacity="1"></path><path fill="none" stroke-dasharray="none" data-z-index="1" class="highcharts-grid-line" d="M 1391.5 46 L 1391.5 961" opacity="1"></path><path fill="none" stroke-dasharray="none" data-z-index="1" class="highcharts-grid-line" d="M 1488.5 46 L 1488.5 961" opacity="1"></path><path fill="none" stroke-dasharray="none" data-z-index="1" class="highcharts-grid-line" d="M 1584.5 46 L 1584.5 961" opacity="1"></path><path fill="none" stroke-dasharray="none" data-z-index="1" class="highcharts-grid-line" d="M 1681.5 46 L 1681.5 961" opacity="1"></path><path fill="none" stroke-dasharray="none" data-z-index="1" class="highcharts-grid-line" d="M 1778.5 46 L 1778.5 961" opacity="1"></path><path fill="none" stroke-dasharray="none" data-z-index="1" class="highcharts-grid-line" d="M 1875.5 46 L 1875.5 961" opacity="1"></path></g><g class="highcharts-grid highcharts-yaxis-grid" data-z-index="1"><path fill="none" stroke="#e6e6e6" stroke-width="1" stroke-dasharray="none" data-z-index="1" class="highcharts-grid-line" d="M 77 961.5 L 1910 961.5" opacity="1"></path><path fill="none" stroke="#e6e6e6" stroke-width="1" stroke-dasharray="none" data-z-index="1" class="highcharts-grid-line" d="M 77 910.5 L 1910 910.5" opacity="1"></path><path fill="none" stroke="#e6e6e6" stroke-width="1" stroke-dasharray="none" data-z-index="1" class="highcharts-grid-line" d="M 77 859.5 L 1910 859.5" opacity="1"></path><path fill="none" stroke="#e6e6e6" stroke-width="1" stroke-dasharray="none" data-z-index="1" class="highcharts-grid-line" d="M 77 809.5 L 1910 809.5" opacity="1"></path><path fill="none" stroke="#e6e6e6" stroke-width="1" stroke-dasharray="none" data-z-index="1" class="highcharts-grid-line" d="M 77 758.5 L 1910 758.5" opacity="1"></path><path fill="none" stroke="#e6e6e6" stroke-width="1" stroke-dasharray="none" data-z-index="1" class="highcharts-grid-line" d="M 77 707.5 L 1910 707.5" opacity="1"></path><path fill="none" stroke="#e6e6e6" stroke-width="1" stroke-dasharray="none" data-z-index="1" class="highcharts-grid-line" d="M 77 656.5 L 1910 656.5" opacity="1"></path><path fill="none" stroke="#e6e6e6" stroke-width="1" stroke-dasharray="none" data-z-index="1" class="highcharts-grid-line" d="M 77 605.5 L 1910 605.5" opacity="1"></path><path fill="none" stroke="#e6e6e6" stroke-width="1" stroke-dasharray="none" data-z-index="1" class="highcharts-grid-line" d="M 77 554.5 L 1910 554.5" opacity="1"></path><path fill="none" stroke="#e6e6e6" stroke-width="1" stroke-dasharray="none" data-z-index="1" class="highcharts-grid-line" d="M 77 504.5 L 1910 504.5" opacity="1"></path><path fill="none" stroke="#e6e6e6" stroke-width="1" stroke-dasharray="none" data-z-index="1" class="highcharts-grid-line" d="M 77 453.5 L 1910 453.5" opacity="1"></path><path fill="none" stroke="#e6e6e6" stroke-width="1" stroke-dasharray="none" data-z-index="1" class="highcharts-grid-line" d="M 77 402.5 L 1910 402.5" opacity="1"></path><path fill="none" stroke="#e6e6e6" stroke-width="1" stroke-dasharray="none" data-z-index="1" class="highcharts-grid-line" d="M 77 351.5 L 1910 351.5" opacity="1"></path><path fill="none" stroke="#e6e6e6" stroke-width="1" stroke-dasharray="none" data-z-index="1" class="highcharts-grid-line" d="M 77 300.5 L 1910 300.5" opacity="1"></path><path fill="none" stroke="#e6e6e6" stroke-width="1" stroke-dasharray="none" data-z-index="1" class="highcharts-grid-line" d="M 77 249.5 L 1910 249.5" opacity="1"></path><path fill="none" stroke="#e6e6e6" stroke-width="1" stroke-dasharray="none" data-z-index="1" class="highcharts-grid-line" d="M 77 198.5 L 1910 198.5" opacity="1"></path><path fill="none" stroke="#e6e6e6" stroke-width="1" stroke-dasharray="none" data-z-index="1" class="highcharts-grid-line" d="M 77 148.5 L 1910 148.5" opacity="1"></path><path fill="none" stroke="#e6e6e6" stroke-width="1" stroke-dasharray="none" data-z-index="1" class="highcharts-grid-line" d="M 77 97.5 L 1910 97.5" opacity="1"></path><path fill="none" stroke="#e6e6e6" stroke-width="1" stroke-dasharray="none" data-z-index="1" class="highcharts-grid-line" d="M 77 45.5 L 1910 45.5" opacity="1"></path></g><rect fill="none" class="highcharts-plot-border" data-z-index="1" x="77" y="46" width="1833" height="915"></rect><g class="highcharts-axis highcharts-xaxis" data-z-index="2"><path fill="none" class="highcharts-tick" stroke="#ccd6eb" stroke-width="1" d="M 131.5 961 L 131.5 971" opacity="1"></path><path fill="none" class="highcharts-tick" stroke="#ccd6eb" stroke-width="1" d="M 228.5 961 L 228.5 971" opacity="1"></path><path fill="none" class="highcharts-tick" stroke="#ccd6eb" stroke-width="1" d="M 325.5 961 L 325.5 971" opacity="1"></path><path fill="none" class="highcharts-tick" stroke="#ccd6eb" stroke-width="1" d="M 422.5 961 L 422.5 971" opacity="1"></path><path fill="none" class="highcharts-tick" stroke="#ccd6eb" stroke-width="1" d="M 519.5 961 L 519.5 971" opacity="1"></path><path fill="none" class="highcharts-tick" stroke="#ccd6eb" stroke-width="1" d="M 616.5 961 L 616.5 971" opacity="1"></path><path fill="none" class="highcharts-tick" stroke="#ccd6eb" stroke-width="1" d="M 713.5 961 L 713.5 971" opacity="1"></path><path fill="none" class="highcharts-tick" stroke="#ccd6eb" stroke-width="1" d="M 810.5 961 L 810.5 971" opacity="1"></path><path fill="none" class="highcharts-tick" stroke="#ccd6eb" stroke-width="1" d="M 906.5 961 L 906.5 971" opacity="1"></path><path fill="none" class="highcharts-tick" stroke="#ccd6eb" stroke-width="1" d="M 1003.5 961 L 1003.5 971" opacity="1"></path><path fill="none" class="highcharts-tick" stroke="#ccd6eb" stroke-width="1" d="M 1100.5 961 L 1100.5 971" opacity="1"></path><path fill="none" class="highcharts-tick" stroke="#ccd6eb" stroke-width="1" d="M 1197.5 961 L 1197.5 971" opacity="1"></path><path fill="none" class="highcharts-tick" stroke="#ccd6eb" stroke-width="1" d="M 1294.5 961 L 1294.5 971" opacity="1"></path><path fill="none" class="highcharts-tick" stroke="#ccd6eb" stroke-width="1" d="M 1391.5 961 L 1391.5 971" opacity="1"></path><path fill="none" class="highcharts-tick" stroke="#ccd6eb" stroke-width="1" d="M 1488.5 961 L 1488.5 971" opacity="1"></path><path fill="none" class="highcharts-tick" stroke="#ccd6eb" stroke-width="1" d="M 1584.5 961 L 1584.5 971" opacity="1"></path><path fill="none" class="highcharts-tick" stroke="#ccd6eb" stroke-width="1" d="M 1681.5 961 L 1681.5 971" opacity="1"></path><path fill="none" class="highcharts-tick" stroke="#ccd6eb" stroke-width="1" d="M 1778.5 961 L 1778.5 971" opacity="1"></path><path fill="none" class="highcharts-tick" stroke="#ccd6eb" stroke-width="1" d="M 1875.5 961 L 1875.5 971" opacity="1"></path><text x="993.5" data-z-index="7" text-anchor="middle" transform="translate(0,0)" class="highcharts-axis-title" style="color:#666666;font-weight:normal;fill:#666666;" y="1000"><tspan>A</tspan></text><path fill="none" class="highcharts-axis-line" stroke="#ccd6eb" stroke-width="1" data-z-index="7" d="M 77 961.5 L 1910 961.5"></path></g><g class="highcharts-axis highcharts-yaxis" data-z-index="2"><text x="25.65625" data-z-index="7" text-anchor="middle" transform="translate(0,0) rotate(270 25.65625 503.5)" class="highcharts-axis-title" style="color:#666666;font-weight:normal;fill:#666666;" y="503.5"><tspan>C</tspan></text><path fill="none" class="highcharts-axis-line" data-z-index="7" d="M 77 46 L 77 961"></path></g><g class="highcharts-series-group" data-z-index="3"><g data-z-index="0.1" class="highcharts-series highcharts-series-0 highcharts-bubble-series " transform="translate(77,46) scale(1 1)" clip-path="url(#highcharts-m8xdvt4-31-)"><path fill="rgb(246,215,147)" fill-opacity="0.5" d="M 35 587 A 19 19 0 1 1 35.018999996833344 586.9999905000008 Z" stroke="rgb(246,215,147)" stroke-width="1" opacity="1" class="highcharts-point highcharts-negative"></path><path fill="rgb(225,231,177)" fill-opacity="0.5" d="M 56.5 501 A 15.5 15.5 0 1 1 56.515499997416676 500.9999922500007 Z" stroke="rgb(225,231,177)" stroke-width="1" opacity="1" class="highcharts-point highcharts-negative"></path><path fill="rgb(222,229,179)" fill-opacity="0.5" d="M 336.5 396 A 15.5 15.5 0 1 1 336.51549999741667 395.9999922500007 Z" stroke="rgb(222,229,179)" stroke-width="1" opacity="1" class="highcharts-point highcharts-negative"></path><path fill="rgb(244,186,131)" fill-opacity="0.5" d="M 605.5 605 A 20.5 20.5 0 1 1 605.5204999965833 604.9999897500009 Z" stroke="rgb(244,186,131)" stroke-width="1" opacity="1" class="highcharts-point highcharts-negative"></path><path fill="rgb(246,219,149)" fill-opacity="0.5" d="M 612 525 A 19 19 0 1 1 612.0189999968334 524.9999905000008 Z" stroke="rgb(246,219,149)" stroke-width="1" opacity="1" class="highcharts-point highcharts-negative"></path><path fill="rgb(243,155,114)" fill-opacity="0.5" d="M 681 648 A 22 22 0 1 1 681.0219999963333 647.9999890000009 Z" stroke="rgb(243,155,114)" stroke-width="1" opacity="1" class="highcharts-point highcharts-negative"></path><path fill="rgb(245,194,135)" fill-opacity="0.5" d="M 766 579 A 20 20 0 1 1 766.0199999966667 578.9999900000008 Z" stroke="rgb(245,194,135)" stroke-width="1" opacity="1" class="highcharts-point highcharts-negative"></path><path fill="rgb(245,211,145)" fill-opacity="0.5" d="M 769.5 530 A 19.5 19.5 0 1 1 769.51949999675 529.9999902500008 Z" stroke="rgb(245,211,145)" stroke-width="1" opacity="1" class="highcharts-point highcharts-negative"></path><path fill="rgb(245,205,141)" fill-opacity="0.5" d="M 808.5 525 A 19.5 19.5 0 1 1 808.51949999675 524.9999902500008 Z" stroke="rgb(245,205,141)" stroke-width="1" opacity="1" class="highcharts-point highcharts-negative"></path><path fill="rgb(242,141,106)" fill-opacity="0.5" d="M 944.5 738 A 22.5 22.5 0 1 1 944.52249999625 737.999988750001 Z" stroke="rgb(242,141,106)" stroke-width="1" opacity="1" class="highcharts-point highcharts-negative"></path><path fill="rgb(241,113,91)" fill-opacity="0.5" d="M 1189.5 848 A 23.5 23.5 0 1 1 1189.5234999960833 847.999988250001 Z" stroke="rgb(241,113,91)" stroke-width="1" opacity="1" class="highcharts-point highcharts-negative"></path><path fill="rgb(219,227,180)" fill-opacity="0.5" d="M 1617 301 A 15 15 0 1 1 1617.0149999975 300.99999250000064 Z" stroke="rgb(219,227,180)" stroke-width="1" opacity="1" class="highcharts-point highcharts-negative"></path><path fill="rgb(164,187,213)" fill-opacity="0.5" d="M 1619 97 A 5 5 0 1 1 1619.0049999991666 96.9999975000002 Z" stroke="rgb(164,187,213)" stroke-width="1" opacity="1" class="highcharts-point highcharts-negative"></path><path fill="rgb(245,211,145)" fill-opacity="0.5" d="M 1625.5 502 A 19.5 19.5 0 1 1 1625.51949999675 501.9999902500008 Z" stroke="rgb(245,211,145)" stroke-width="1" opacity="1" class="highcharts-point highcharts-negative"></path><path fill="rgb(196,210,194)" fill-opacity="0.5" d="M 1628.5 305 A 12.5 12.5 0 1 1 1628.5124999979166 304.9999937500005 Z" stroke="rgb(196,210,194)" stroke-width="1" opacity="1" class="highcharts-point highcharts-negative"></path><path fill="rgb(227,232,176)" fill-opacity="0.5" d="M 1673 339 A 16 16 0 1 1 1673.0159999973334 338.99999200000065 Z" stroke="rgb(227,232,176)" stroke-width="1" opacity="1" class="highcharts-point highcharts-negative"></path><path fill="rgb(218,226,181)" fill-opacity="0.5" d="M 1678 306 A 15 15 0 1 1 1678.0149999975 305.99999250000064 Z" stroke="rgb(218,226,181)" stroke-width="1" opacity="1" class="highcharts-point highcharts-negative"></path><path fill="rgb(232,236,173)" fill-opacity="0.5" d="M 1763 366 A 16 16 0 1 1 1763.0159999973334 365.99999200000065 Z" stroke="rgb(232,236,173)" stroke-width="1" opacity="1" class="highcharts-point highcharts-negative"></path><path fill="rgb(244,187,131)" fill-opacity="0.5" d="M 1776.5 565 A 20.5 20.5 0 1 1 1776.5204999965833 564.9999897500009 Z" stroke="rgb(244,187,131)" stroke-width="1" opacity="1" class="highcharts-point highcharts-negative"></path><path fill="rgb(244,181,128)" fill-opacity="0.5" d="M 1781 689 A 21 21 0 1 1 1781.0209999965 688.9999895000009 Z" stroke="rgb(244,181,128)" stroke-width="1" opacity="1" class="highcharts-point highcharts-negative"></path><path fill="rgb(245,192,134)" fill-opacity="0.5" d="M 1783.5 589 A 20.5 20.5 0 1 1 1783.5204999965833 588.9999897500009 Z" stroke="rgb(245,192,134)" stroke-width="1" opacity="1" class="highcharts-point highcharts-negative"></path><path fill="rgb(243,244,166)" fill-opacity="0.5" d="M 1799 349 A 17 17 0 1 1 1799.0169999971667 348.9999915000007 Z" stroke="rgb(243,244,166)" stroke-width="1" opacity="1" class="highcharts-point highcharts-negative"></path></g><g data-z-index="0.1" class="highcharts-markers highcharts-series-0 highcharts-bubble-series " transform="translate(77,46) scale(1 1)" clip-path="none"></g></g><text x="960" text-anchor="middle" class="highcharts-title" data-z-index="4" style="color:#333333;font-size:14;font-weight:normal;fill:#333333;" y="21"><tspan>ExampleSet</tspan></text><text x="960" text-anchor="middle" class="highcharts-subtitle" data-z-index="4" style="color:#666666;fill:#666666;" y="45"></text><g class="highcharts-legend" data-z-index="7" transform="translate(853,1018)"><rect fill="none" class="highcharts-legend-box" rx="0" ry="0" x="0" y="0" width="214" height="47" visibility="visible"></rect><g data-z-index="1"><g><g class="highcharts-legend-item highcharts-undefined-series highcharts-color-undefined" data-z-index="1" transform="translate(8,3)"><rect x="0" y="4" width="200" height="12" fill="url(#highcharts-m8xdvt4-30)" data-z-index="1"></rect><g class="highcharts-grid highcharts-coloraxis-grid" data-z-index="1"><path fill="none" data-z-index="1" class="highcharts-grid-line" d="M -0.5 4 L -0.5 16" opacity="1"></path><path fill="none" data-z-index="1" class="highcharts-grid-line" d="M 49.5 4 L 49.5 16" opacity="1"></path><path fill="none" data-z-index="1" class="highcharts-grid-line" d="M 99.5 4 L 99.5 16" opacity="1"></path><path fill="none" data-z-index="1" class="highcharts-grid-line" d="M 149.5 4 L 149.5 16" opacity="1"></path><path fill="none" data-z-index="1" class="highcharts-grid-line" d="M 199.5 4 L 199.5 16" opacity="1"></path></g><text x="21" style="color:#333333;cursor:pointer;font-size:12px;font-weight:bold;fill:#333333;" text-anchor="start" data-z-index="2" y="15"></text><g class="highcharts-axis highcharts-coloraxis" data-z-index="2"><path fill="none" class="highcharts-axis-line" data-z-index="7" d="M 0 16 L 200 16"></path></g><g class="highcharts-axis-labels highcharts-coloraxis-labels" data-z-index="7"><text x="11.8984375" style="color:#666666;cursor:default;font-size:11px;font-weight:normal;fill:#666666;" text-anchor="middle" transform="translate(0,0)" y="35" opacity="1">-1.4</text><text x="50" style="color:#666666;cursor:default;font-size:11px;font-weight:normal;fill:#666666;" text-anchor="middle" transform="translate(0,0)" y="35" opacity="1">-1.2</text><text x="100" style="color:#666666;cursor:default;font-size:11px;font-weight:normal;fill:#666666;" text-anchor="middle" transform="translate(0,0)" y="35" opacity="1">-1</text><text x="150" style="color:#666666;cursor:default;font-size:11px;font-weight:normal;fill:#666666;" text-anchor="middle" transform="translate(0,0)" y="35" opacity="1">-0.8</text><text x="188.1015625" style="color:#666666;cursor:default;font-size:11px;font-weight:normal;fill:#666666;" text-anchor="middle" transform="translate(0,0)" y="35" opacity="1">-0.6</text></g></g></g></g></g><g class="highcharts-axis-labels highcharts-xaxis-labels" data-z-index="7"><text x="132.43750490048" style="color:#666666;cursor:default;font-size:11px;font-weight:normal;fill:#666666;" text-anchor="middle" transform="translate(0,0)" y="980" opacity="1">0.1</text><text x="229.30818028907" style="color:#666666;cursor:default;font-size:11px;font-weight:normal;fill:#666666;" text-anchor="middle" transform="translate(0,0)" y="980" opacity="1">0.15</text><text x="326.17885567765" style="color:#666666;cursor:default;font-size:11px;font-weight:normal;fill:#666666;" text-anchor="middle" transform="translate(0,0)" y="980" opacity="1">0.2</text><text x="423.04953106623" style="color:#666666;cursor:default;font-size:11px;font-weight:normal;fill:#666666;" text-anchor="middle" transform="translate(0,0)" y="980" opacity="1">0.25</text><text x="519.92020645482" style="color:#666666;cursor:default;font-size:11px;font-weight:normal;fill:#666666;" text-anchor="middle" transform="translate(0,0)" y="980" opacity="1">0.3</text><text x="616.7908818434" style="color:#666666;cursor:default;font-size:11px;font-weight:normal;fill:#666666;" text-anchor="middle" transform="translate(0,0)" y="980" opacity="1">0.35</text><text x="713.66155723198" style="color:#666666;cursor:default;font-size:11px;font-weight:normal;fill:#666666;" text-anchor="middle" transform="translate(0,0)" y="980" opacity="1">0.4</text><text x="810.53223262057" style="color:#666666;cursor:default;font-size:11px;font-weight:normal;fill:#666666;" text-anchor="middle" transform="translate(0,0)" y="980" opacity="1">0.45</text><text x="907.40290800915" style="color:#666666;cursor:default;font-size:11px;font-weight:normal;fill:#666666;" text-anchor="middle" transform="translate(0,0)" y="980" opacity="1">0.5</text><text x="1004.2735833977" style="color:#666666;cursor:default;font-size:11px;font-weight:normal;fill:#666666;" text-anchor="middle" transform="translate(0,0)" y="980" opacity="1">0.55</text><text x="1101.1442587863" style="color:#666666;cursor:default;font-size:11px;font-weight:normal;fill:#666666;" text-anchor="middle" transform="translate(0,0)" y="980" opacity="1">0.6</text><text x="1198.0149341749" style="color:#666666;cursor:default;font-size:11px;font-weight:normal;fill:#666666;" text-anchor="middle" transform="translate(0,0)" y="980" opacity="1">0.65</text><text x="1294.8856095635" style="color:#666666;cursor:default;font-size:11px;font-weight:normal;fill:#666666;" text-anchor="middle" transform="translate(0,0)" y="980" opacity="1">0.7</text><text x="1391.7562849521" style="color:#666666;cursor:default;font-size:11px;font-weight:normal;fill:#666666;" text-anchor="middle" transform="translate(0,0)" y="980" opacity="1">0.75</text><text x="1488.6269603406" style="color:#666666;cursor:default;font-size:11px;font-weight:normal;fill:#666666;" text-anchor="middle" transform="translate(0,0)" y="980" opacity="1">0.8</text><text x="1585.4976357292" style="color:#666666;cursor:default;font-size:11px;font-weight:normal;fill:#666666;" text-anchor="middle" transform="translate(0,0)" y="980" opacity="1">0.85</text><text x="1682.3683111178" style="color:#666666;cursor:default;font-size:11px;font-weight:normal;fill:#666666;" text-anchor="middle" transform="translate(0,0)" y="980" opacity="1">0.9</text><text x="1779.2389865064" style="color:#666666;cursor:default;font-size:11px;font-weight:normal;fill:#666666;" text-anchor="middle" transform="translate(0,0)" y="980" opacity="1">0.95</text><text x="1876.109661895" style="color:#666666;cursor:default;font-size:11px;font-weight:normal;fill:#666666;" text-anchor="middle" transform="translate(0,0)" y="980" opacity="1">1</text></g><g class="highcharts-axis-labels highcharts-yaxis-labels" data-z-index="7"><text x="62" style="color:#666666;cursor:default;font-size:11px;font-weight:normal;fill:#666666;" text-anchor="end" transform="translate(0,0)" y="965" opacity="1">0.02</text><text x="62" style="color:#666666;cursor:default;font-size:11px;font-weight:normal;fill:#666666;" text-anchor="end" transform="translate(0,0)" y="914" opacity="1">0.03</text><text x="62" style="color:#666666;cursor:default;font-size:11px;font-weight:normal;fill:#666666;" text-anchor="end" transform="translate(0,0)" y="863" opacity="1">0.04</text><text x="62" style="color:#666666;cursor:default;font-size:11px;font-weight:normal;fill:#666666;" text-anchor="end" transform="translate(0,0)" y="813" opacity="1">0.05</text><text x="62" style="color:#666666;cursor:default;font-size:11px;font-weight:normal;fill:#666666;" text-anchor="end" transform="translate(0,0)" y="762" opacity="1">0.06</text><text x="62" style="color:#666666;cursor:default;font-size:11px;font-weight:normal;fill:#666666;" text-anchor="end" transform="translate(0,0)" y="711" opacity="1">0.07</text><text x="62" style="color:#666666;cursor:default;font-size:11px;font-weight:normal;fill:#666666;" text-anchor="end" transform="translate(0,0)" y="660" opacity="1">0.08</text><text x="62" style="color:#666666;cursor:default;font-size:11px;font-weight:normal;fill:#666666;" text-anchor="end" transform="translate(0,0)" y="609" opacity="1">0.09</text><text x="62" style="color:#666666;cursor:default;font-size:11px;font-weight:normal;fill:#666666;" text-anchor="end" transform="translate(0,0)" y="558" opacity="1">0.1</text><text x="62" style="color:#666666;cursor:default;font-size:11px;font-weight:normal;fill:#666666;" text-anchor="end" transform="translate(0,0)" y="508" opacity="1">0.11</text><text x="62" style="color:#666666;cursor:default;font-size:11px;font-weight:normal;fill:#666666;" text-anchor="end" transform="translate(0,0)" y="457" opacity="1">0.12</text><text x="62" style="color:#666666;cursor:default;font-size:11px;font-weight:normal;fill:#666666;" text-anchor="end" transform="translate(0,0)" y="406" opacity="1">0.13</text><text x="62" style="color:#666666;cursor:default;font-size:11px;font-weight:normal;fill:#666666;" text-anchor="end" transform="translate(0,0)" y="355" opacity="1">0.14</text><text x="62" style="color:#666666;cursor:default;font-size:11px;font-weight:normal;fill:#666666;" text-anchor="end" transform="translate(0,0)" y="304" opacity="1">0.15</text><text x="62" style="color:#666666;cursor:default;font-size:11px;font-weight:normal;fill:#666666;" text-anchor="end" transform="translate(0,0)" y="253" opacity="1">0.16</text><text x="62" style="color:#666666;cursor:default;font-size:11px;font-weight:normal;fill:#666666;" text-anchor="end" transform="translate(0,0)" y="203" opacity="1">0.17</text><text x="62" style="color:#666666;cursor:default;font-size:11px;font-weight:normal;fill:#666666;" text-anchor="end" transform="translate(0,0)" y="152" opacity="1">0.18</text><text x="62" style="color:#666666;cursor:default;font-size:11px;font-weight:normal;fill:#666666;" text-anchor="end" transform="translate(0,0)" y="101" opacity="1">0.19</text><text x="62" style="color:#666666;cursor:default;font-size:11px;font-weight:normal;fill:#666666;" text-anchor="end" transform="translate(0,0)" y="50" opacity="1">0.2</text></g></svg>