<svg xmlns:xlink="http://www.w3.org/1999/xlink" version="1.1" class="highcharts-root" style="font-family:&quot;Lucida Grande&quot;, &quot;Lucida Sans Unicode&quot;, Arial, Helvetica, sans-serif;font-size:12px;" xmlns="http://www.w3.org/2000/svg" width="1920" height="1080" viewBox="0 0 1920 1080"><desc>Created with Highcharts 7.1.2</desc><defs><linearGradient x1="0" y1="0" x2="1" y2="0" id="highcharts-tli0y2v-68"><stop offset="0" stop-color="rgb(103,143,248)" stop-opacity="1"></stop><stop offset="0.5" stop-color="rgb(247,247,164)" stop-opacity="1"></stop><stop offset="1" stop-color="rgb(239,64,64)" stop-opacity="1"></stop></linearGradient><clipPath id="highcharts-tli0y2v-69-"><rect x="0" y="0" width="1833" height="915" fill="none"></rect></clipPath></defs><rect fill="#ffffff" class="highcharts-background" x="0" y="0" width="1920" height="1080" rx="0" ry="0"></rect><rect fill="none" class="highcharts-plot-background" x="77" y="46" width="1833" height="915"></rect><g class="highcharts-pane-group" data-z-index="0"></g><g class="highcharts-grid highcharts-xaxis-grid" data-z-index="1"><path fill="none" stroke-dasharray="none" data-z-index="1" class="highcharts-grid-line" d="M 155.5 46 L 155.5 961" opacity="1"></path><path fill="none" stroke-dasharray="none" data-z-index="1" class="highcharts-grid-line" d="M 277.5 46 L 277.5 961" opacity="1"></path><path fill="none" stroke-dasharray="none" data-z-index="1" class="highcharts-grid-line" d="M 400.5 46 L 400.5 961" opacity="1"></path><path fill="none" stroke-dasharray="none" data-z-index="1" class="highcharts-grid-line" d="M 522.5 46 L 522.5 961" opacity="1"></path><path fill="none" stroke-dasharray="none" data-z-index="1" class="highcharts-grid-line" d="M 644.5 46 L 644.5 961" opacity="1"></path><path fill="none" stroke-dasharray="none" data-z-index="1" class="highcharts-grid-line" d="M 767.5 46 L 767.5 961" opacity="1"></path><path fill="none" stroke-dasharray="none" data-z-index="1" class="highcharts-grid-line" d="M 889.5 46 L 889.5 961" opacity="1"></path><path fill="none" stroke-dasharray="none" data-z-index="1" class="highcharts-grid-line" d="M 1012.5 46 L 1012.5 961" opacity="1"></path><path fill="none" stroke-dasharray="none" data-z-index="1" class="highcharts-grid-line" d="M 1134.5 46 L 1134.5 961" opacity="1"></path><path fill="none" stroke-dasharray="none" data-z-index="1" class="highcharts-grid-line" d="M 1257.5 46 L 1257.5 961" opacity="1"></path><path fill="none" stroke-dasharray="none" data-z-index="1" class="highcharts-grid-line" d="M 1379.5 46 L 1379.5 961" opacity="1"></path><path fill="none" stroke-dasharray="none" data-z-index="1" class="highcharts-grid-line" d="M 1502.5 46 L 1502.5 961" opacity="1"></path><path fill="none" stroke-dasharray="none" data-z-index="1" class="highcharts-grid-line" d="M 1624.5 46 L 1624.5 961" opacity="1"></path><path fill="none" stroke-dasharray="none" data-z-index="1" class="highcharts-grid-line" d="M 1747.5 46 L 1747.5 961" opacity="1"></path><path fill="none" stroke-dasharray="none" data-z-index="1" class="highcharts-grid-line" d="M 1869.5 46 L 1869.5 961" opacity="1"></path></g><g class="highcharts-grid highcharts-yaxis-grid" data-z-index="1"><path fill="none" stroke="#e6e6e6" stroke-width="1" stroke-dasharray="none" data-z-index="1" class="highcharts-grid-line" d="M 77 961.5 L 1910 961.5" opacity="1"></path><path fill="none" stroke="#e6e6e6" stroke-width="1" stroke-dasharray="none" data-z-index="1" class="highcharts-grid-line" d="M 77 896.5 L 1910 896.5" opacity="1"></path><path fill="none" stroke="#e6e6e6" stroke-width="1" stroke-dasharray="none" data-z-index="1" class="highcharts-grid-line" d="M 77 830.5 L 1910 830.5" opacity="1"></path><path fill="none" stroke="#e6e6e6" stroke-width="1" stroke-dasharray="none" data-z-index="1" class="highcharts-grid-line" d="M 77 765.5 L 1910 765.5" opacity="1"></path><path fill="none" stroke="#e6e6e6" stroke-width="1" stroke-dasharray="none" data-z-index="1" class="highcharts-grid-line" d="M 77 700.5 L 1910 700.5" opacity="1"></path><path fill="none" stroke="#e6e6e6" stroke-width="1" stroke-dasharray="none" data-z-index="1" class="highcharts-grid-line" d="M 77 634.5 L 1910 634.5" opacity="1"></path><path fill="none" stroke="#e6e6e6" stroke-width="1" stroke-dasharray="none" data-z-index="1" class="highcharts-grid-line" d="M 77 569.5 L 1910 569.5" opacity="1"></path><path fill="none" stroke="#e6e6e6" stroke-width="1" stroke-dasharray="none" data-z-index="1" class="highcharts-grid-line" d="M 77 504.5 L 1910 504.5" opacity="1"></path><path fill="none" stroke="#e6e6e6" stroke-width="1" stroke-dasharray="none" data-z-index="1" class="highcharts-grid-line" d="M 77 438.5 L 1910 438.5" opacity="1"></path><path fill="none" stroke="#e6e6e6" stroke-width="1" stroke-dasharray="none" data-z-index="1" class="highcharts-grid-line" d="M 77 373.5 L 1910 373.5" opacity="1"></path><path fill="none" stroke="#e6e6e6" stroke-width="1" stroke-dasharray="none" data-z-index="1" class="highcharts-grid-line" d="M 77 307.5 L 1910 307.5" opacity="1"></path><path fill="none" stroke="#e6e6e6" stroke-width="1" stroke-dasharray="none" data-z-index="1" class="highcharts-grid-line" d="M 77 242.5 L 1910 242.5" opacity="1"></path><path fill="none" stroke="#e6e6e6" stroke-width="1" stroke-dasharray="none" data-z-index="1" class="highcharts-grid-line" d="M 77 177.5 L 1910 177.5" opacity="1"></path><path fill="none" stroke="#e6e6e6" stroke-width="1" stroke-dasharray="none" data-z-index="1" class="highcharts-grid-line" d="M 77 111.5 L 1910 111.5" opacity="1"></path><path fill="none" stroke="#e6e6e6" stroke-width="1" stroke-dasharray="none" data-z-index="1" class="highcharts-grid-line" d="M 77 45.5 L 1910 45.5" opacity="1"></path></g><rect fill="none" class="highcharts-plot-border" data-z-index="1" x="77" y="46" width="1833" height="915"></rect><g class="highcharts-axis highcharts-xaxis" data-z-index="2"><path fill="none" class="highcharts-tick" stroke="#ccd6eb" stroke-width="1" d="M 155.5 961 L 155.5 971" opacity="1"></path><path fill="none" class="highcharts-tick" stroke="#ccd6eb" stroke-width="1" d="M 277.5 961 L 277.5 971" opacity="1"></path><path fill="none" class="highcharts-tick" stroke="#ccd6eb" stroke-width="1" d="M 400.5 961 L 400.5 971" opacity="1"></path><path fill="none" class="highcharts-tick" stroke="#ccd6eb" stroke-width="1" d="M 522.5 961 L 522.5 971" opacity="1"></path><path fill="none" class="highcharts-tick" stroke="#ccd6eb" stroke-width="1" d="M 644.5 961 L 644.5 971" opacity="1"></path><path fill="none" class="highcharts-tick" stroke="#ccd6eb" stroke-width="1" d="M 767.5 961 L 767.5 971" opacity="1"></path><path fill="none" class="highcharts-tick" stroke="#ccd6eb" stroke-width="1" d="M 889.5 961 L 889.5 971" opacity="1"></path><path fill="none" class="highcharts-tick" stroke="#ccd6eb" stroke-width="1" d="M 1012.5 961 L 1012.5 971" opacity="1"></path><path fill="none" class="highcharts-tick" stroke="#ccd6eb" stroke-width="1" d="M 1134.5 961 L 1134.5 971" opacity="1"></path><path fill="none" class="highcharts-tick" stroke="#ccd6eb" stroke-width="1" d="M 1257.5 961 L 1257.5 971" opacity="1"></path><path fill="none" class="highcharts-tick" stroke="#ccd6eb" stroke-width="1" d="M 1379.5 961 L 1379.5 971" opacity="1"></path><path fill="none" class="highcharts-tick" stroke="#ccd6eb" stroke-width="1" d="M 1502.5 961 L 1502.5 971" opacity="1"></path><path fill="none" class="highcharts-tick" stroke="#ccd6eb" stroke-width="1" d="M 1624.5 961 L 1624.5 971" opacity="1"></path><path fill="none" class="highcharts-tick" stroke="#ccd6eb" stroke-width="1" d="M 1747.5 961 L 1747.5 971" opacity="1"></path><path fill="none" class="highcharts-tick" stroke="#ccd6eb" stroke-width="1" d="M 1869.5 961 L 1869.5 971" opacity="1"></path><text x="993.5" data-z-index="7" text-anchor="middle" transform="translate(0,0)" class="highcharts-axis-title" style="color:#666666;font-weight:normal;fill:#666666;" y="1000"><tspan>A</tspan></text><path fill="none" class="highcharts-axis-line" stroke="#ccd6eb" stroke-width="1" data-z-index="7" d="M 77 961.5 L 1910 961.5"></path></g><g class="highcharts-axis highcharts-yaxis" data-z-index="2"><text x="25.65625" data-z-index="7" text-anchor="middle" transform="translate(0,0) rotate(270 25.65625 503.5)" class="highcharts-axis-title" style="color:#666666;font-weight:normal;fill:#666666;" y="503.5"><tspan>C</tspan></text><path fill="none" class="highcharts-axis-line" data-z-index="7" d="M 77 46 L 77 961"></path></g><g class="highcharts-series-group" data-z-index="3"><g data-z-index="0.1" class="highcharts-series highcharts-series-0 highcharts-bubble-series " transform="translate(77,46) scale(1 1)" clip-path="url(#highcharts-tli0y2v-69-)"><path fill="rgb(231,235,174)" fill-opacity="0.5" d="M 33.5 634 A 16.5 16.5 0 1 1 33.51649999725001 633.9999917500007 Z" stroke="rgb(231,235,174)" stroke-width="1" opacity="1" class="highcharts-point highcharts-negative"></path><path fill="rgb(244,170,122)" fill-opacity="0.5" d="M 329 686 A 21 21 0 1 1 329.0209999965 685.9999895000009 Z" stroke="rgb(244,170,122)" stroke-width="1" opacity="1" class="highcharts-point highcharts-negative"></path><path fill="rgb(244,174,124)" fill-opacity="0.5" d="M 378 750 A 21 21 0 1 1 378.0209999965 749.9999895000009 Z" stroke="rgb(244,174,124)" stroke-width="1" opacity="1" class="highcharts-point highcharts-negative"></path><path fill="rgb(209,219,186)" fill-opacity="0.5" d="M 533 429 A 15 15 0 1 1 533.0149999975 428.99999250000064 Z" stroke="rgb(209,219,186)" stroke-width="1" opacity="1" class="highcharts-point highcharts-negative"></path><path fill="rgb(145,173,223)" fill-opacity="0.5" d="M 1100 276 A 5 5 0 1 1 1100.0049999991666 275.99999750000023 Z" stroke="rgb(145,173,223)" stroke-width="1" opacity="1" class="highcharts-point highcharts-negative"></path><path fill="rgb(244,179,127)" fill-opacity="0.5" d="M 1221 636 A 21 21 0 1 1 1221.0209999965 635.9999895000009 Z" stroke="rgb(244,179,127)" stroke-width="1" opacity="1" class="highcharts-point highcharts-negative"></path><path fill="rgb(159,183,216)" fill-opacity="0.5" d="M 1536.5 79 A 9.5 9.5 0 1 1 1536.5094999984167 78.9999952500004 Z" stroke="rgb(159,183,216)" stroke-width="1" opacity="1" class="highcharts-point highcharts-negative"></path><path fill="rgb(244,176,125)" fill-opacity="0.5" d="M 1573 642 A 21 21 0 1 1 1573.0209999965 641.9999895000009 Z" stroke="rgb(244,176,125)" stroke-width="1" opacity="1" class="highcharts-point highcharts-negative"></path><path fill="rgb(218,226,181)" fill-opacity="0.5" d="M 1587 501 A 16 16 0 1 1 1587.0159999973334 500.99999200000065 Z" stroke="rgb(218,226,181)" stroke-width="1" opacity="1" class="highcharts-point highcharts-negative"></path><path fill="rgb(241,114,91)" fill-opacity="0.5" d="M 1708 772 A 23 23 0 1 1 1708.0229999961666 771.999988500001 Z" stroke="rgb(241,114,91)" stroke-width="1" opacity="1" class="highcharts-point highcharts-negative"></path><path fill="rgb(241,112,90)" fill-opacity="0.5" d="M 1713.5 732 A 23.5 23.5 0 1 1 1713.5234999960833 731.999988250001 Z" stroke="rgb(241,112,90)" stroke-width="1" opacity="1" class="highcharts-point highcharts-negative"></path><path fill="rgb(189,205,198)" fill-opacity="0.5" d="M 1719.5 258 A 13.5 13.5 0 1 1 1719.51349999775 257.99999325000056 Z" stroke="rgb(189,205,198)" stroke-width="1" opacity="1" class="highcharts-point highcharts-negative"></path><path fill="rgb(243,148,110)" fill-opacity="0.5" d="M 1743 705 A 22 22 0 1 1 1743.0219999963333 704.9999890000009 Z" stroke="rgb(243,148,110)" stroke-width="1" opacity="1" class="highcharts-point highcharts-negative"></path><path fill="rgb(214,223,183)" fill-opacity="0.5" d="M 1753.5 224 A 15.5 15.5 0 1 1 1753.5154999974168 223.99999225000064 Z" stroke="rgb(214,223,183)" stroke-width="1" opacity="1" class="highcharts-point highcharts-negative"></path><path fill="rgb(205,217,189)" fill-opacity="0.5" d="M 1761 321 A 15 15 0 1 1 1761.0149999975 320.99999250000064 Z" stroke="rgb(205,217,189)" stroke-width="1" opacity="1" class="highcharts-point highcharts-negative"></path><path fill="rgb(241,105,86)" fill-opacity="0.5" d="M 1768.5 770 A 23.5 23.5 0 1 1 1768.5234999960833 769.999988250001 Z" stroke="rgb(241,105,86)" stroke-width="1" opacity="1" class="highcharts-point highcharts-negative"></path><path fill="rgb(244,169,121)" fill-opacity="0.5" d="M 1778 687 A 21 21 0 1 1 1778.0209999965 686.9999895000009 Z" stroke="rgb(244,169,121)" stroke-width="1" opacity="1" class="highcharts-point highcharts-negative"></path><path fill="rgb(186,203,200)" fill-opacity="0.5" d="M 1781 401 A 13 13 0 1 1 1781.0129999978333 400.9999935000005 Z" stroke="rgb(186,203,200)" stroke-width="1" opacity="1" class="highcharts-point highcharts-negative"></path><path fill="rgb(241,111,90)" fill-opacity="0.5" d="M 1781.5 787 A 23.5 23.5 0 1 1 1781.5234999960833 786.999988250001 Z" stroke="rgb(241,111,90)" stroke-width="1" opacity="1" class="highcharts-point highcharts-negative"></path><path fill="rgb(157,182,217)" fill-opacity="0.5" d="M 1787.5 202 A 9.5 9.5 0 1 1 1787.5094999984167 201.99999525000038 Z" stroke="rgb(157,182,217)" stroke-width="1" opacity="1" class="highcharts-point highcharts-negative"></path><path fill="rgb(244,167,121)" fill-opacity="0.5" d="M 1792 630 A 21 21 0 1 1 1792.0209999965 629.9999895000009 Z" stroke="rgb(244,167,121)" stroke-width="1" opacity="1" class="highcharts-point highcharts-negative"></path><path fill="rgb(241,98,83)" fill-opacity="0.5" d="M 1792.5 842 A 23.5 23.5 0 1 1 1792.5234999960833 841.999988250001 Z" stroke="rgb(241,98,83)" stroke-width="1" opacity="1" class="highcharts-point highcharts-negative"></path><path fill="rgb(243,146,109)" fill-opacity="0.5" d="M 1792 739 A 22 22 0 1 1 1792.0219999963333 738.9999890000009 Z" stroke="rgb(243,146,109)" stroke-width="1" opacity="1" class="highcharts-point highcharts-negative"></path><path fill="rgb(241,103,85)" fill-opacity="0.5" d="M 1792.5 816 A 23.5 23.5 0 1 1 1792.5234999960833 815.999988250001 Z" stroke="rgb(241,103,85)" stroke-width="1" opacity="1" class="highcharts-point highcharts-negative"></path><path fill="rgb(224,230,178)" fill-opacity="0.5" d="M 1792 415 A 16 16 0 1 1 1792.0159999973334 414.99999200000065 Z" stroke="rgb(224,230,178)" stroke-width="1" opacity="1" class="highcharts-point highcharts-negative"></path><path fill="rgb(234,238,172)" fill-opacity="0.5" d="M 1792 451 A 17 17 0 1 1 1792.0169999971667 450.9999915000007 Z" stroke="rgb(234,238,172)" stroke-width="1" opacity="1" class="highcharts-point highcharts-negative"></path><path fill="rgb(234,238,171)" fill-opacity="0.5" d="M 1792 435 A 17 17 0 1 1 1792.0169999971667 434.9999915000007 Z" stroke="rgb(234,238,171)" stroke-width="1" opacity="1" class="highcharts-point highcharts-negative"></path><path fill="rgb(244,189,132)" fill-opacity="0.5" d="M 1792.5 594 A 20.5 20.5 0 1 1 1792.5204999965833 593.9999897500009 Z" stroke="rgb(244,189,132)" stroke-width="1" opacity="1" class="highcharts-point highcharts-negative"></path></g><g data-z-index="0.1" class="highcharts-markers highcharts-series-0 highcharts-bubble-series " transform="translate(77,46) scale(1 1)" clip-path="none"></g></g><text x="960" text-anchor="middle" class="highcharts-title" data-z-index="4" style="color:#333333;font-size:14;font-weight:normal;fill:#333333;" y="21"><tspan>ExampleSet</tspan></text><text x="960" text-anchor="middle" class="highcharts-subtitle" data-z-index="4" style="color:#666666;fill:#666666;" y="45"></text><g class="highcharts-legend" data-z-index="7" transform="translate(853,1018)"><rect fill="none" class="highcharts-legend-box" rx="0" ry="0" x="0" y="0" width="214" height="47" visibility="visible"></rect><g data-z-index="1"><g><g class="highcharts-legend-item highcharts-undefined-series highcharts-color-undefined" data-z-index="1" transform="translate(8,3)"><rect x="0" y="4" width="200" height="12" fill="url(#highcharts-tli0y2v-68)" data-z-index="1"></rect><g class="highcharts-grid highcharts-coloraxis-grid" data-z-index="1"><path fill="none" data-z-index="1" class="highcharts-grid-line" d="M -0.5 4 L -0.5 16" opacity="1"></path><path fill="none" data-z-index="1" class="highcharts-grid-line" d="M 49.5 4 L 49.5 16" opacity="1"></path><path fill="none" data-z-index="1" class="highcharts-grid-line" d="M 99.5 4 L 99.5 16" opacity="1"></path><path fill="none" data-z-index="1" class="highcharts-grid-line" d="M 149.5 4 L 149.5 16" opacity="1"></path><path fill="none" data-z-index="1" class="highcharts-grid-line" d="M 199.5 4 L 199.5 16" opacity="1"></path></g><text x="21" style="color:#333333;cursor:pointer;font-size:12px;font-weight:bold;fill:#333333;" text-anchor="start" data-z-index="2" y="15"></text><g class="highcharts-axis highcharts-coloraxis" data-z-index="2"><path fill="none" class="highcharts-axis-line" data-z-index="7" d="M 0 16 L 200 16"></path></g><g class="highcharts-axis-labels highcharts-coloraxis-labels" data-z-index="7"><text x="11.875" style="color:#666666;cursor:default;font-size:11px;font-weight:normal;fill:#666666;" text-anchor="middle" transform="translate(0,0)" y="35" opacity="1">-1.2</text><text x="50" style="color:#666666;cursor:default;font-size:11px;font-weight:normal;fill:#666666;" text-anchor="middle" transform="translate(0,0)" y="35" opacity="1">-1.1</text><text x="100" style="color:#666666;cursor:default;font-size:11px;font-weight:normal;fill:#666666;" text-anchor="middle" transform="translate(0,0)" y="35" opacity="1">-1</text><text x="150" style="color:#666666;cursor:default;font-size:11px;font-weight:normal;fill:#666666;" text-anchor="middle" transform="translate(0,0)" y="35" opacity="1">-0.9</text><text x="188.125" style="color:#666666;cursor:default;font-size:11px;font-weight:normal;fill:#666666;" text-anchor="middle" transform="translate(0,0)" y="35" opacity="1">-0.8</text></g></g></g></g></g><g class="highcharts-axis-labels highcharts-xaxis-labels" data-z-index="7"><text x="155.66399752433" style="color:#666666;cursor:default;font-size:11px;font-weight:normal;fill:#666666;" text-anchor="middle" transform="translate(0,0)" y="980" opacity="1">0.3</text><text x="278.11613997294" style="color:#666666;cursor:default;font-size:11px;font-weight:normal;fill:#666666;" text-anchor="middle" transform="translate(0,0)" y="980" opacity="1">0.35</text><text x="400.56828242156" style="color:#666666;cursor:default;font-size:11px;font-weight:normal;fill:#666666;" text-anchor="middle" transform="translate(0,0)" y="980" opacity="1">0.4</text><text x="523.02042487017" style="color:#666666;cursor:default;font-size:11px;font-weight:normal;fill:#666666;" text-anchor="middle" transform="translate(0,0)" y="980" opacity="1">0.45</text><text x="645.47256731878" style="color:#666666;cursor:default;font-size:11px;font-weight:normal;fill:#666666;" text-anchor="middle" transform="translate(0,0)" y="980" opacity="1">0.5</text><text x="767.9247097674" style="color:#666666;cursor:default;font-size:11px;font-weight:normal;fill:#666666;" text-anchor="middle" transform="translate(0,0)" y="980" opacity="1">0.55</text><text x="890.37685221601" style="color:#666666;cursor:default;font-size:11px;font-weight:normal;fill:#666666;" text-anchor="middle" transform="translate(0,0)" y="980" opacity="1">0.6</text><text x="1012.8289946646" style="color:#666666;cursor:default;font-size:11px;font-weight:normal;fill:#666666;" text-anchor="middle" transform="translate(0,0)" y="980" opacity="1">0.65</text><text x="1135.2811371132" style="color:#666666;cursor:default;font-size:11px;font-weight:normal;fill:#666666;" text-anchor="middle" transform="translate(0,0)" y="980" opacity="1">0.7</text><text x="1257.7332795618" style="color:#666666;cursor:default;font-size:11px;font-weight:normal;fill:#666666;" text-anchor="middle" transform="translate(0,0)" y="980" opacity="1">0.75</text><text x="1380.1854220105" style="color:#666666;cursor:default;font-size:11px;font-weight:normal;fill:#666666;" text-anchor="middle" transform="translate(0,0)" y="980" opacity="1">0.8</text><text x="1502.6375644591" style="color:#666666;cursor:default;font-size:11px;font-weight:normal;fill:#666666;" text-anchor="middle" transform="translate(0,0)" y="980" opacity="1">0.85</text><text x="1625.0897069077" style="color:#666666;cursor:default;font-size:11px;font-weight:normal;fill:#666666;" text-anchor="middle" transform="translate(0,0)" y="980" opacity="1">0.9</text><text x="1747.5418493563" style="color:#666666;cursor:default;font-size:11px;font-weight:normal;fill:#666666;" text-anchor="middle" transform="translate(0,0)" y="980" opacity="1">0.95</text><text x="1869.9939918049" style="color:#666666;cursor:default;font-size:11px;font-weight:normal;fill:#666666;" text-anchor="middle" transform="translate(0,0)" y="980" opacity="1">1</text></g><g class="highcharts-axis-labels highcharts-yaxis-labels" data-z-index="7"><text x="62" style="color:#666666;cursor:default;font-size:11px;font-weight:normal;fill:#666666;" text-anchor="end" transform="translate(0,0)" y="965" opacity="1">0.06</text><text x="62" style="color:#666666;cursor:default;font-size:11px;font-weight:normal;fill:#666666;" text-anchor="end" transform="translate(0,0)" y="900" opacity="1">0.07</text><text x="62" style="color:#666666;cursor:default;font-size:11px;font-weight:normal;fill:#666666;" text-anchor="end" transform="translate(0,0)" y="834" opacity="1">0.08</text><text x="62" style="color:#666666;cursor:default;font-size:11px;font-weight:normal;fill:#666666;" text-anchor="end" transform="translate(0,0)" y="769" opacity="1">0.09</text><text x="62" style="color:#666666;cursor:default;font-size:11px;font-weight:normal;fill:#666666;" text-anchor="end" transform="translate(0,0)" y="704" opacity="1">0.1</text><text x="62" style="color:#666666;cursor:default;font-size:11px;font-weight:normal;fill:#666666;" text-anchor="end" transform="translate(0,0)" y="638" opacity="1">0.11</text><text x="62" style="color:#666666;cursor:default;font-size:11px;font-weight:normal;fill:#666666;" text-anchor="end" transform="translate(0,0)" y="573" opacity="1">0.12</text><text x="62" style="color:#666666;cursor:default;font-size:11px;font-weight:normal;fill:#666666;" text-anchor="end" transform="translate(0,0)" y="508" opacity="1">0.13</text><text x="62" style="color:#666666;cursor:default;font-size:11px;font-weight:normal;fill:#666666;" text-anchor="end" transform="translate(0,0)" y="442" opacity="1">0.14</text><text x="62" style="color:#666666;cursor:default;font-size:11px;font-weight:normal;fill:#666666;" text-anchor="end" transform="translate(0,0)" y="377" opacity="1">0.15</text><text x="62" style="color:#666666;cursor:default;font-size:11px;font-weight:normal;fill:#666666;" text-anchor="end" transform="translate(0,0)" y="311" opacity="1">0.16</text><text x="62" style="color:#666666;cursor:default;font-size:11px;font-weight:normal;fill:#666666;" text-anchor="end" transform="translate(0,0)" y="246" opacity="1">0.17</text><text x="62" style="color:#666666;cursor:default;font-size:11px;font-weight:normal;fill:#666666;" text-anchor="end" transform="translate(0,0)" y="181" opacity="1">0.18</text><text x="62" style="color:#666666;cursor:default;font-size:11px;font-weight:normal;fill:#666666;" text-anchor="end" transform="translate(0,0)" y="115" opacity="1">0.19</text><text x="62" style="color:#666666;cursor:default;font-size:11px;font-weight:normal;fill:#666666;" text-anchor="end" transform="translate(0,0)" y="50" opacity="1">0.2</text></g></svg>